<?xml version="1.0" encoding="UTF-8"?>
<svg id="Capa_2" data-name="Capa 2" xmlns="http://www.w3.org/2000/svg" viewBox="0 0 326.5 330.71">
  <defs>
    <style>
      .cls-1 {
        fill: #9f3f8e;
      }

      .cls-2 {
        fill: #fe851c;
      }

      .cls-3 {
        fill: #fff;
      }

      .cls-4 {
        fill: #5276ba;
      }

      .cls-5 {
        fill: #00b023;
      }

      .cls-6 {
        fill: #ff4c64;
      }

      .cls-7 {
        fill: #fec152;
      }

      .cls-8 {
        fill: #0797d4;
      }

      .cls-9 {
        fill: #9d2648;
      }

      .cls-10 {
        fill: #00afa5;
      }
    </style>
  </defs>
  <g id="Capa_1-2" data-name="Capa 1">
    <path class="cls-3" d="M99.9,330.71h134.4v-.29c51.5-3.94,92.2-47.11,92.2-99.6V94.05h-.18C323.29,41.68,279.72,0,226.6,0h-28.68v.21h-70.12v-.21h-35.84v.31C40.58,4.37,0,47.48,0,99.9v137.47h.22c3.39,52.04,46.79,93.35,99.68,93.35Z"/>
    <g>
      <path class="cls-6" d="M38.4,103.56c0-35.57,28.84-64.41,64.41-64.41h.47V11.31h-3.38C50.97,11.31,11.31,50.97,11.31,99.9v18.72h27.09v-15.06Z"/>
      <path class="cls-10" d="M224.18,39.15c35.57,0,64.41,28.84,64.41,64.41v1.81h26.59v-5.47c0-48.92-39.66-88.58-88.58-88.58h-17.37v27.84h14.95Z"/>
      <path class="cls-5" d="M102.81,292.34c-35.57,0-64.41-28.84-64.41-64.41v-1.88H11.31v4.76c0,48.92,39.66,88.58,88.58,88.58h16.59v-27.05h-13.68Z"/>
      <path class="cls-2" d="M99.93,252.4c-11.94,0-21.63-9.68-21.63-21.63h0c0-10.18-8.25-18.43-18.43-18.43H11.31v13.7h36.76c2.63,0,4.76,2.13,4.76,4.76h0c0,25.99,21.07,47.07,47.07,47.07h16.59s0-8.92,0-8.92c0-9.14-7.41-16.55-16.55-16.55h0Z"/>
      <path class="cls-8" d="M103.28,11.31v38.14c0,1.87-1.51,3.38-3.38,3.38h0c-25.99,0-47.07,21.07-47.07,47.07v18.72h6.8c10.32,0,18.68-8.36,18.68-18.68h0c0-11.94,9.68-21.62,21.62-21.62h1.77c8.16,0,14.78-6.62,14.78-14.78V11.31h-13.21Z"/>
      <path class="cls-1" d="M288.59,105.37h-9.45c-3.02,0-5.47-2.45-5.47-5.47h0c0-25.99-21.07-47.07-47.07-47.07h-17.37v7.58c0,9.88,8.01,17.9,17.9,17.9h0c11.94,0,21.62,9.68,21.62,21.62h0c0,10.32,8.36,18.68,18.68,18.68h47.75v-13.24h-26.59Z"/>
      <path class="cls-4" d="M288.59,212.35v15.59c0,35.57-28.84,64.41-64.41,64.41h-1.19v27.05h3.61c48.92,0,88.58-39.66,88.58-88.58v-18.47h-26.59Z"/>
      <path class="cls-7" d="M248.75,230.78h0c0,11.94-9.68,21.63-21.63,21.63h0c-9.88,0-17.89,8.01-17.89,17.89v49.1h13.76v-37.91c0-1.99,1.62-3.61,3.61-3.61h0c25.99,0,47.07-21.07,47.07-47.07v-18.47h-6.48c-10.18,0-18.43,8.25-18.43,18.43Z"/>
      <g>
        <rect class="cls-9" x="275.73" y="131.86" width="12.96" height="26.74"/>
        <polygon class="cls-9" points="302.01 131.86 302.01 171.91 262.42 171.91 262.42 131.86 248.75 131.86 248.75 198.64 315.18 198.64 315.18 131.86 302.01 131.86"/>
      </g>
      <g>
        <polygon class="cls-9" points="169.92 158.59 202.82 158.59 182.99 125.2 203.14 91.8 169.92 91.8 169.92 158.59"/>
        <path class="cls-9" d="M224.33,91.8h-21.19l19.8,33.39-19.49,33.39h32.91v-54.76c0-6.64-5.38-12.02-12.02-12.02Z"/>
      </g>
      <g>
        <g>
          <rect class="cls-9" x="90.62" y="118.61" width="66.43" height="13.24"/>
          <path class="cls-9" d="M157.05,104.62v-12.82h-54.41c-6.64,0-12.02,5.38-12.02,12.02v.8h66.43Z"/>
        </g>
        <rect class="cls-9" x="90.62" y="145.84" width="66.43" height="12.75"/>
      </g>
      <g>
        <polygon class="cls-9" points="196.27 172.1 183.52 172.1 183.52 185.58 169.92 185.58 169.92 198.62 196.27 198.62 196.27 172.1"/>
        <polygon class="cls-9" points="236.36 198.62 236.36 185.58 222.55 185.58 222.55 172.1 209.8 172.1 209.8 198.62 236.36 198.62"/>
        <polygon class="cls-9" points="209.8 212.17 209.8 238.89 222.55 238.89 222.55 225.22 236.36 225.22 236.36 212.17 209.8 212.17"/>
        <polygon class="cls-9" points="169.92 212.17 169.92 225.22 183.52 225.22 183.52 238.89 196.27 238.89 196.27 212.17 169.92 212.17"/>
        <rect class="cls-9" x="196.27" y="198.62" width="13.53" height="13.53"/>
      </g>
      <g>
        <polygon class="cls-9" points="45.04 182.05 30.58 165.21 45.13 148.27 32.02 131.86 11.31 131.86 11.31 198.64 30.91 198.64 45.04 182.05"/>
        <polygon class="cls-9" points="45.65 131.86 58.96 148.52 44.62 165.21 59.05 182.02 44.9 198.64 77.75 198.64 77.75 131.86 45.65 131.86"/>
      </g>
      <g>
        <path class="cls-9" d="M90.62,217.27v9.6c0,6.64,5.38,12.02,12.02,12.02h54.41v-21.62h-66.43Z"/>
        <polygon class="cls-9" points="97.75 193.9 97.75 201.76 104.91 201.76 104.91 209.41 127.29 209.41 127.29 194.46 119.99 194.46 119.99 201.65 112.34 201.65 112.34 187.24 135.01 187.24 135.01 194.25 142.51 194.25 142.51 201.4 149.53 201.4 149.53 209.41 157.05 209.41 157.05 172.1 90.62 172.1 90.62 193.9 97.75 193.9"/>
      </g>
      <g>
        <path class="cls-9" d="M143.96,260.58c2.54,1.4,4.21,2.32,8.21,2.32s5.67-.92,8.21-2.32c3.09-1.7,6.94-3.83,14.1-3.83s11,2.12,14.1,3.83c2.48,1.37,4.15,2.27,7.96,2.31v-10.28h-66.43v4.15c6.99.05,10.8,2.13,13.85,3.82Z"/>
        <path class="cls-9" d="M182.69,270.03c-2.54-1.4-4.21-2.32-8.2-2.32s-5.67.92-8.21,2.32c-3.09,1.7-6.94,3.83-14.1,3.83s-11.01-2.12-14.1-3.83c-2.48-1.37-4.15-2.27-7.96-2.31v9.75c6.99.05,10.8,2.13,13.85,3.82,2.54,1.4,4.21,2.32,8.21,2.32s5.67-.92,8.21-2.32c3.09-1.7,6.94-3.83,14.1-3.83s11,2.12,14.1,3.83c2.48,1.37,4.15,2.27,7.96,2.31v-9.75c-6.99-.05-10.79-2.13-13.85-3.82Z"/>
        <path class="cls-9" d="M182.69,311.43c-2.54-1.4-4.21-2.32-8.2-2.32s-5.67.92-8.21,2.32c-3.09,1.7-6.94,3.83-14.1,3.83s-11.01-2.12-14.1-3.83c-2.48-1.37-4.15-2.27-7.96-2.31v10.28h66.43v-4.15c-6.99-.05-10.79-2.13-13.85-3.82Z"/>
        <path class="cls-9" d="M174.48,288.41c-4,0-5.67.92-8.21,2.32-3.09,1.7-6.94,3.83-14.1,3.83s-11.01-2.12-14.1-3.83c-2.48-1.37-4.15-2.27-7.96-2.31v9.75c6.99.05,10.8,2.13,13.85,3.82,2.54,1.4,4.21,2.32,8.21,2.32s5.67-.92,8.21-2.32c3.09-1.7,6.94-3.83,14.1-3.83s11,2.12,14.1,3.83c2.48,1.37,4.15,2.27,7.96,2.31v-9.75c-6.99-.05-10.79-2.13-13.85-3.82-2.54-1.4-4.21-2.32-8.2-2.32Z"/>
      </g>
      <path class="cls-9" d="M163.22,11.52c3.86,0,7.29,1.81,9.5,4.62.91,1.16,2.37,1.76,3.83,1.59,3.55-.42,7.26.72,9.99,3.45,2.73,2.73,3.87,6.43,3.45,9.99-.17,1.46.43,2.92,1.59,3.83,2.81,2.22,4.62,5.64,4.62,9.5s-1.81,7.29-4.62,9.5c-1.16.91-1.76,2.37-1.59,3.83.42,3.55-.72,7.26-3.45,9.99-2.73,2.73-6.43,3.87-9.99,3.45-1.46-.17-2.92.43-3.83,1.59-2.22,2.81-5.64,4.62-9.5,4.62s-7.29-1.81-9.5-4.62c-.91-1.16-2.37-1.76-3.83-1.59-3.55.42-7.26-.72-9.99-3.45-2.73-2.73-3.87-6.43-3.45-9.99.17-1.46-.43-2.92-1.59-3.83-2.81-2.22-4.62-5.64-4.62-9.5s1.81-7.29,4.62-9.5c1.16-.91,1.76-2.37,1.59-3.83-.42-3.55.72-7.26,3.45-9.99,2.73-2.73,6.43-3.87,9.99-3.45,1.46.17,2.92-.43,3.83-1.59,2.22-2.81,5.64-4.62,9.5-4.62h-33.22v66.79h66.43V11.52h-33.22Z"/>
      <circle class="cls-9" cx="163.22" cy="44.49" r="6.62"/>
    </g>
  </g>
</svg>