<?xml version="1.0" encoding="UTF-8"?>
<svg id="Capa_2" data-name="Capa 2" xmlns="http://www.w3.org/2000/svg" viewBox="0 0 603.72 93.12">
  <defs>
    <style>
      .cls-1 {
        fill: #9f3f8e;
      }

      .cls-2 {
        fill: #fe851c;
      }

      .cls-3 {
        fill: #5276ba;
      }

      .cls-4 {
        fill: #00b023;
      }

      .cls-5 {
        fill: #ff4c64;
      }

      .cls-6 {
        fill: #fec152;
      }

      .cls-7 {
        fill: #0797d4;
      }

      .cls-8 {
        fill: #b28d5c;
      }

      .cls-9 {
        fill: #9d2648;
      }

      .cls-10 {
        fill: #00afa5;
      }
    </style>
  </defs>
  <g id="Layer_1" data-name="Layer 1">
    <g>
      <g>
        <path class="cls-9" d="M167.26,50.91h-20.16l-.87-4.07,6.1-1.98c.46-3.72,1.1-11.91,1.45-19.05.46-9.06.46-12.84-.06-14.41-.7-.93-3.43-2.21-5.34-2.9l.87-4.07h22.19c1.92,6.51,6.56,19.52,10.11,27.88,3.49-9.41,8.48-21.73,10.11-27.88h20.91l.81,4.12-6.04,2.67,1.22,21.78c.35,6.39.7,9.76,1.57,10.98.64.99,3.37,2.21,5.4,2.85l-.87,4.07h-22.66l-.87-4.07,6.39-2.03c.17-3.83-.93-19.58-1.1-30.9l-12.43,31.78c-3.08.29-6.27.29-9.35,0-2.85-6.62-8.71-22.25-13.07-31.72l-.41,14.17c-.29,10.4-.41,14.35.12,15.63.58,1.57,4.01,2.21,6.85,3.08l-.87,4.07Z"/>
        <path class="cls-9" d="M219.59,29.07c0-15.34,12.02-25.79,25.85-25.79s23.47,8.71,23.47,23c0,15.22-11.33,25.79-25.27,25.79s-24.05-8.71-24.05-23ZM253.29,42.49c1.45-2.61,2.85-7.49,2.85-13.54,0-11.56-3.49-18.53-12.26-18.53-2.9,0-5.58.75-7.44,2.09-2.44,3.49-4.07,8.83-4.07,15.16,0,10.75,4.76,17.43,12.78,17.43,3.49,0,6.39-.99,8.13-2.61Z"/>
        <path class="cls-9" d="M293.31,50.91c-.64-1.98-1.45-4.47-2.5-7.03-4.59-11.56-9.7-25.15-13.19-33.17l-5.81-2.21.87-4.07h22.89l.87,4.07-5.58,1.98c2.61,7.32,6.45,19.05,10.75,30.03,3.72-9.53,7.38-21.2,9.99-29.97l-5.87-2.03.87-4.07h19.11l.87,4.07-5.52,2.61c-3.89,8.07-8.95,20.62-13.65,32.76l-2.21,7.03c-3.95.29-8.02.29-11.91,0Z"/>
        <path class="cls-9" d="M336.75,44.81c.29-1.74.58-6.27.58-11.33v-11.62c0-3.6-.17-9.41-.99-10.51-.64-.99-3.37-2.21-5.4-2.85l.87-4.07h22.66l.87,4.07-5.81,2.03c-.29,1.74-.58,6.27-.58,11.33v11.62c0,3.6.17,9.41.99,10.51.64.99,3.37,2.21,5.4,2.85l-.87,4.07h-22.66l-.87-4.07,5.81-2.03Z"/>
        <path class="cls-9" d="M367.83,44.81c.29-1.74.58-6.27.58-11.33v-11.62c0-3.6-.17-9.41-.99-10.51-.64-.99-3.37-2.21-5.4-2.85l.87-4.07h22.66l.87,4.07-5.81,2.03c-.29,1.74-.58,6.27-.58,11.33v11.62c0,3.6.17,9.41.99,10.51.12.17.29.35.46.52,1.22.7,3.66.81,5.93.81s4.47-.17,6.04-.41l2.32-8.66c1.86-.12,5.93.06,7.55.35.17,4.59.17,9.47,0,14.29h-40.43l-.87-4.07,5.81-2.03Z"/>
        <path class="cls-9" d="M414.36,44.81c.29-1.74.58-6.27.58-11.33v-11.62c0-3.6-.17-9.41-.99-10.51-.64-.99-3.37-2.21-5.4-2.85l.87-4.07h22.66l.87,4.07-5.81,2.03c-.29,1.74-.58,6.27-.58,11.33v11.62c0,3.6.17,9.41.99,10.51.64.99,3.37,2.21,5.4,2.85l-.87,4.07h-22.66l-.87-4.07,5.81-2.03Z"/>
        <path class="cls-9" d="M445.43,44.81c.29-1.74.58-6.27.58-11.33v-11.62c0-3.6-.17-9.41-.99-10.51-.64-.99-3.37-2.21-5.4-2.85l.87-4.07h10.4c2.44,0,9.88-.41,13.3-.41,19.23,0,25.73,10.69,25.73,23.24,0,16.21-11.15,24.22-23.7,24.22-4.24,0-10.57-.58-14.87-.58h-10.86l-.87-4.07,5.81-2.03ZM459.02,44.47c1.34.99,6.62,1.92,10.8.35,5-2.73,7.84-8.83,7.84-17.54,0-7.2-2.61-12.84-5.29-14.99-2.21-1.39-5.46-2.03-8.83-2.03-1.92,0-3.89.12-5.34.35-.29,1.8-.58,6.27-.58,11.27v11.62c0,3.6.17,9.41.99,10.51.12.12.23.29.41.46Z"/>
        <path class="cls-9" d="M514.9,50.91h-20.91l-.87-4.07,5.52-2.61c3.95-8.07,8.95-20.62,13.65-32.76l2.21-6.45c1.74-.46,8.66-1.34,12.31-1.16.52,2.09,1.28,4.88,2.38,7.61,4.88,12.32,10.34,26.9,13.13,33.05l6.16,2.32-.87,4.07h-22.89l-.87-4.07,5.81-2.03c-.81-2.32-1.74-5.11-2.79-8.13l-16.5.41c-.75,2.5-1.51,4.94-2.15,7.15l7.55,2.61-.87,4.07ZM524.84,30.87c-1.92-5.46-4.07-11.44-6.33-17.14-2.03,5.17-4.12,11.1-6.04,16.85l12.37.29Z"/>
        <path class="cls-9" d="M559.22,44.81c.29-1.74.58-6.27.58-11.33v-11.62c0-3.6-.17-9.41-.99-10.51-.64-.99-3.37-2.21-5.4-2.85l.87-4.07h10.4c2.44,0,9.88-.41,13.3-.41,19.23,0,25.73,10.69,25.73,23.24,0,16.21-11.15,24.22-23.7,24.22-4.24,0-10.57-.58-14.87-.58h-10.86l-.87-4.07,5.81-2.03ZM572.81,44.47c1.34.99,6.62,1.92,10.8.35,5-2.73,7.84-8.83,7.84-17.54,0-7.2-2.61-12.84-5.29-14.99-2.21-1.39-5.46-2.03-8.83-2.03-1.92,0-3.89.12-5.34.35-.29,1.8-.58,6.27-.58,11.27v11.62c0,3.6.17,9.41.99,10.51.12.12.23.29.41.46Z"/>
      </g>
      <g>
        <path class="cls-8" d="M154.29,86.31c-1.53,0-2.99-.22-4.39-.66-1.4-.44-2.51-1-3.33-1.69l1.26-2.83c.78.62,1.75,1.13,2.91,1.54,1.16.41,2.34.62,3.55.62,1.03,0,1.86-.11,2.49-.34s1.1-.53,1.4-.91c.3-.38.45-.82.45-1.3,0-.6-.21-1.08-.64-1.44-.43-.36-.98-.65-1.67-.87s-1.44-.42-2.27-.6c-.83-.19-1.66-.41-2.49-.66-.83-.25-1.59-.58-2.27-.98-.68-.4-1.24-.94-1.66-1.61s-.64-1.53-.64-2.57.28-2.04.85-2.92c.57-.89,1.44-1.59,2.6-2.13,1.17-.53,2.64-.8,4.43-.8,1.17,0,2.34.15,3.5.45s2.16.73,3.02,1.29l-1.15,2.83c-.88-.52-1.78-.91-2.71-1.16-.93-.25-1.83-.38-2.68-.38-1.01,0-1.82.12-2.45.36-.62.24-1.08.56-1.37.95s-.43.84-.43,1.34c0,.6.21,1.08.63,1.44s.97.65,1.65.85,1.44.41,2.28.6c.84.2,1.67.42,2.5.66s1.58.56,2.27.95c.68.39,1.23.92,1.65,1.59.42.67.63,1.52.63,2.55s-.28,2.01-.85,2.9c-.57.89-1.44,1.59-2.62,2.13-1.17.53-2.66.8-4.45.8Z"/>
        <path class="cls-8" d="M171.55,82.99h11.05v3.05h-14.69v-19.58h14.29v3.05h-10.66v13.48ZM171.27,74.59h9.74v2.99h-9.74v-2.99Z"/>
        <path class="cls-8" d="M197.82,86.31c-1.49,0-2.88-.25-4.15-.74-1.28-.49-2.39-1.19-3.33-2.1-.94-.9-1.67-1.97-2.2-3.2-.52-1.23-.78-2.57-.78-4.03s.26-2.8.78-4.03c.52-1.23,1.26-2.3,2.21-3.2.95-.9,2.06-1.6,3.33-2.1,1.27-.49,2.66-.74,4.17-.74,1.6,0,3.07.28,4.39.83,1.32.55,2.44,1.37,3.36,2.45l-2.35,2.21c-.71-.76-1.5-1.34-2.38-1.72-.88-.38-1.83-.57-2.85-.57s-1.96.17-2.81.5c-.85.34-1.58.81-2.21,1.43s-1.11,1.34-1.45,2.18c-.35.84-.52,1.76-.52,2.77s.17,1.93.52,2.77c.34.84.83,1.57,1.45,2.18.62.62,1.36,1.09,2.21,1.43.85.34,1.79.5,2.81.5s1.98-.19,2.85-.57c.88-.38,1.67-.96,2.38-1.75l2.35,2.24c-.91,1.06-2.03,1.87-3.36,2.43-1.33.56-2.8.84-4.42.84Z"/>
        <path class="cls-8" d="M211.19,86.03v-19.58h8.06c1.73,0,3.22.28,4.46.84,1.24.56,2.2,1.36,2.87,2.41.67,1.04,1.01,2.28,1.01,3.72s-.34,2.67-1.01,3.71c-.67,1.04-1.63,1.83-2.87,2.38-1.24.55-2.73.83-4.46.83h-6.04l1.62-1.65v7.36h-3.64ZM214.83,79.07l-1.62-1.73h5.88c1.6,0,2.81-.35,3.62-1.04s1.22-1.65,1.22-2.88-.41-2.21-1.22-2.88-2.02-1.01-3.62-1.01h-5.88l1.62-1.79v11.33ZM224,86.03l-4.95-7.11h3.89l4.98,7.11h-3.92Z"/>
        <path class="cls-8" d="M237.38,82.99h11.05v3.05h-14.69v-19.58h14.29v3.05h-10.66v13.48ZM237.1,74.59h9.74v2.99h-9.74v-2.99Z"/>
        <path class="cls-8" d="M258.55,86.03v-16.5h-6.49v-3.08h16.62v3.08h-6.49v16.5h-3.64Z"/>
        <path class="cls-8" d="M269.77,86.03l8.81-19.58h3.58l8.84,19.58h-3.8l-7.58-17.65h1.45l-7.55,17.65h-3.75ZM273.82,81.5l.98-2.85h10.57l.98,2.85h-12.53Z"/>
        <path class="cls-8" d="M295.59,86.03v-19.58h8.06c1.73,0,3.22.28,4.46.84,1.24.56,2.2,1.36,2.87,2.41.67,1.04,1.01,2.28,1.01,3.72s-.34,2.67-1.01,3.71c-.67,1.04-1.63,1.83-2.87,2.38-1.24.55-2.73.83-4.46.83h-6.04l1.62-1.65v7.36h-3.64ZM299.23,79.07l-1.62-1.73h5.88c1.6,0,2.81-.35,3.62-1.04s1.22-1.65,1.22-2.88-.41-2.21-1.22-2.88-2.02-1.01-3.62-1.01h-5.88l1.62-1.79v11.33ZM308.4,86.03l-4.95-7.11h3.89l4.98,7.11h-3.92Z"/>
        <path class="cls-8" d="M317.6,64.86l3.78-3.83h4.11l-4.87,3.83h-3.02ZM318.14,86.03v-19.58h3.64v19.58h-3.64Z"/>
        <path class="cls-8" d="M326.39,86.03l8.81-19.58h3.58l8.84,19.58h-3.8l-7.58-17.65h1.45l-7.55,17.65h-3.75ZM330.44,81.5l.98-2.85h10.57l.98,2.85h-12.53Z"/>
        <path class="cls-8" d="M362.03,86.03v-19.58h8.56c2.13,0,3.99.41,5.59,1.23,1.6.82,2.85,1.96,3.75,3.41.89,1.45,1.34,3.17,1.34,5.15s-.45,3.67-1.34,5.13c-.9,1.46-2.15,2.61-3.75,3.43-1.6.82-3.47,1.23-5.59,1.23h-8.56ZM365.66,82.96h4.75c1.47,0,2.75-.28,3.82-.84,1.07-.56,1.9-1.34,2.49-2.35.59-1.01.88-2.18.88-3.52s-.29-2.54-.88-3.54c-.59-1-1.42-1.78-2.49-2.34-1.07-.56-2.34-.84-3.82-.84h-4.75v13.43Z"/>
        <path class="cls-8" d="M390.87,82.99h11.05v3.05h-14.69v-19.58h14.29v3.05h-10.66v13.48ZM390.59,74.59h9.74v2.99h-9.74v-2.99Z"/>
        <path class="cls-8" d="M417.89,86.03v-19.58h2.99l8.56,14.29h-1.57l8.42-14.29h2.99l.03,19.58h-3.44l-.03-14.18h.73l-7.16,11.94h-1.62l-7.27-11.94h.84v14.18h-3.47Z"/>
        <path class="cls-8" d="M455.88,86.31c-1.53,0-2.94-.25-4.22-.76s-2.41-1.21-3.36-2.11c-.95-.9-1.69-1.97-2.21-3.19-.52-1.22-.78-2.56-.78-4.01s.26-2.79.78-4.01c.52-1.22,1.26-2.28,2.21-3.19.95-.9,2.07-1.61,3.36-2.11,1.29-.5,2.69-.76,4.2-.76s2.93.25,4.21.76c1.28.5,2.39,1.21,3.34,2.11.95.9,1.69,1.97,2.21,3.19.52,1.22.78,2.56.78,4.01s-.26,2.8-.78,4.03c-.52,1.23-1.26,2.29-2.21,3.19-.95.9-2.07,1.59-3.34,2.1-1.28.5-2.67.76-4.18.76ZM455.85,83.13c.99,0,1.9-.17,2.74-.5.84-.34,1.57-.82,2.18-1.44.62-.62,1.1-1.35,1.44-2.18.35-.83.52-1.75.52-2.76s-.17-1.93-.52-2.76c-.34-.83-.83-1.56-1.44-2.18s-1.34-1.1-2.18-1.44c-.84-.34-1.75-.5-2.74-.5s-1.9.17-2.73.5c-.83.34-1.56.82-2.18,1.44s-1.11,1.35-1.45,2.18c-.35.83-.52,1.75-.52,2.76s.17,1.9.52,2.74c.34.84.83,1.57,1.44,2.2.62.62,1.34,1.1,2.18,1.44.84.34,1.75.5,2.74.5Z"/>
        <path class="cls-8" d="M477.53,86.03l-8.56-19.58h3.94l7.64,17.71h-2.27l7.72-17.71h3.64l-8.53,19.58h-3.58Z"/>
        <path class="cls-8" d="M493.81,86.03v-19.58h3.64v19.58h-3.64Z"/>
        <path class="cls-8" d="M504.83,86.03v-19.58h3.64v16.5h10.24v3.08h-13.88Z"/>
        <path class="cls-8" d="M523.68,86.03v-19.58h3.64v19.58h-3.64Z"/>
        <path class="cls-8" d="M534.71,86.03v-19.58h8.56c2.13,0,3.99.41,5.59,1.23,1.6.82,2.85,1.96,3.75,3.41.89,1.45,1.34,3.17,1.34,5.15s-.45,3.67-1.34,5.13c-.9,1.46-2.15,2.61-3.75,3.43-1.6.82-3.47,1.23-5.59,1.23h-8.56ZM538.34,82.96h4.75c1.47,0,2.75-.28,3.82-.84,1.07-.56,1.9-1.34,2.49-2.35.59-1.01.88-2.18.88-3.52s-.29-2.54-.88-3.54c-.59-1-1.42-1.78-2.49-2.34-1.07-.56-2.34-.84-3.82-.84h-4.75v13.43Z"/>
        <path class="cls-8" d="M556.86,86.03l8.81-19.58h3.58l8.84,19.58h-3.8l-7.58-17.65h1.45l-7.55,17.65h-3.75ZM560.92,81.5l.98-2.85h10.57l.98,2.85h-12.53Z"/>
        <path class="cls-8" d="M582.68,86.03v-19.58h8.56c2.13,0,3.99.41,5.59,1.23,1.6.82,2.85,1.96,3.75,3.41.89,1.45,1.34,3.17,1.34,5.15s-.45,3.67-1.34,5.13c-.9,1.46-2.15,2.61-3.75,3.43-1.6.82-3.47,1.23-5.59,1.23h-8.56ZM586.32,82.96h4.75c1.47,0,2.75-.28,3.82-.84,1.07-.56,1.9-1.34,2.49-2.35.59-1.01.88-2.18.88-3.52s-.29-2.54-.88-3.54c-.59-1-1.42-1.78-2.49-2.34-1.07-.56-2.34-.84-3.82-.84h-4.75v13.43Z"/>
      </g>
      <g>
        <path class="cls-5" d="M8.18,27.91c0-10.73,8.7-19.44,19.44-19.44h.14V.07h-1.02C11.97.07,0,12.04,0,26.8v5.65h8.18v-4.54Z"/>
        <path class="cls-10" d="M64.24,8.47c10.73,0,19.44,8.7,19.44,19.44v.55h8.03v-1.65C91.7,12.04,79.74.07,64.97.07h-5.24v8.4h4.51Z"/>
        <path class="cls-4" d="M27.61,84.88c-10.73,0-19.44-8.7-19.44-19.44v-.57H0v1.44c0,14.76,11.97,26.73,26.73,26.73h5.01v-8.16h-4.13Z"/>
        <path class="cls-2" d="M26.74,72.83c-3.6,0-6.53-2.92-6.53-6.53h0c0-3.07-2.49-5.56-5.56-5.56H0v4.14h11.09c.79,0,1.44.64,1.44,1.44h0c0,7.84,6.36,14.2,14.2,14.2h5.01s0-2.69,0-2.69c0-2.76-2.24-5-5-5h0Z"/>
        <path class="cls-7" d="M27.75.07v11.51c0,.56-.46,1.02-1.02,1.02h0c-7.84,0-14.2,6.36-14.2,14.2v5.65h2.05c3.11,0,5.64-2.52,5.64-5.64h0c0-3.6,2.92-6.53,6.53-6.53h.53c2.46,0,4.46-2,4.46-4.46V.07h-3.99Z"/>
        <path class="cls-1" d="M83.68,28.45h-2.85c-.91,0-1.65-.74-1.65-1.65h0c0-7.84-6.36-14.2-14.2-14.2h-5.24v2.29c0,2.98,2.42,5.4,5.4,5.4h0c3.6,0,6.53,2.92,6.53,6.53h0c0,3.11,2.52,5.64,5.64,5.64h14.41v-4h-8.03Z"/>
        <path class="cls-3" d="M83.68,60.74v4.7c0,10.73-8.7,19.44-19.44,19.44h-.36v8.16h1.09c14.76,0,26.73-11.97,26.73-26.73v-5.57h-8.03Z"/>
        <path class="cls-6" d="M71.66,66.3h0c0,3.6-2.92,6.53-6.53,6.53h0c-2.98,0-5.4,2.42-5.4,5.4v14.82h4.15v-11.44c0-.6.49-1.09,1.09-1.09h0c7.84,0,14.2-6.36,14.2-14.2v-5.57h-1.96c-3.07,0-5.56,2.49-5.56,5.56Z"/>
        <g>
          <rect class="cls-9" x="79.8" y="36.45" width="3.91" height="8.07"/>
          <polygon class="cls-9" points="87.73 36.45 87.73 48.53 75.78 48.53 75.78 36.45 71.66 36.45 71.66 56.6 91.7 56.6 91.7 36.45 87.73 36.45"/>
        </g>
        <g>
          <polygon class="cls-9" points="47.87 44.52 57.8 44.52 51.81 34.44 57.89 24.36 47.87 24.36 47.87 44.52"/>
          <path class="cls-9" d="M64.29,24.36h-6.4l5.97,10.08-5.88,10.08h9.93v-16.53c0-2-1.62-3.63-3.63-3.63Z"/>
        </g>
        <g>
          <g>
            <rect class="cls-9" x="23.93" y="32.45" width="20.05" height="4"/>
            <path class="cls-9" d="M43.98,28.23v-3.87h-16.42c-2,0-3.63,1.62-3.63,3.63v.24h20.05Z"/>
          </g>
          <rect class="cls-9" x="23.93" y="40.67" width="20.05" height="3.85"/>
        </g>
        <g>
          <polygon class="cls-9" points="55.82 48.59 51.97 48.59 51.97 52.66 47.87 52.66 47.87 56.6 55.82 56.6 55.82 48.59"/>
          <polygon class="cls-9" points="67.91 56.6 67.91 52.66 63.75 52.66 63.75 48.59 59.9 48.59 59.9 56.6 67.91 56.6"/>
          <polygon class="cls-9" points="59.9 60.68 59.9 68.75 63.75 68.75 63.75 64.62 67.91 64.62 67.91 60.68 59.9 60.68"/>
          <polygon class="cls-9" points="47.87 60.68 47.87 64.62 51.97 64.62 51.97 68.75 55.82 68.75 55.82 60.68 47.87 60.68"/>
          <rect class="cls-9" x="55.82" y="56.6" width="4.08" height="4.08"/>
        </g>
        <g>
          <polygon class="cls-9" points="10.18 51.6 5.82 46.51 10.21 41.4 6.25 36.45 0 36.45 0 56.6 5.91 56.6 10.18 51.6"/>
          <polygon class="cls-9" points="10.36 36.45 14.38 41.47 10.05 46.51 14.41 51.59 10.14 56.6 20.05 56.6 20.05 36.45 10.36 36.45"/>
        </g>
        <g>
          <path class="cls-9" d="M23.93,62.22v2.9c0,2,1.62,3.63,3.63,3.63h16.42v-6.53h-20.05Z"/>
          <polygon class="cls-9" points="26.09 55.17 26.09 57.54 28.25 57.54 28.25 59.85 35 59.85 35 55.34 32.8 55.34 32.8 57.51 30.49 57.51 30.49 53.16 37.33 53.16 37.33 55.28 39.59 55.28 39.59 57.44 41.71 57.44 41.71 59.85 43.98 59.85 43.98 48.59 23.93 48.59 23.93 55.17 26.09 55.17"/>
        </g>
        <g>
          <path class="cls-9" d="M40.03,75.29c.77.42,1.27.7,2.48.7s1.71-.28,2.48-.7c.93-.51,2.1-1.15,4.26-1.15s3.32.64,4.25,1.15c.75.41,1.25.69,2.4.7v-3.1h-20.05v1.25c2.11.02,3.26.64,4.18,1.15Z"/>
          <path class="cls-9" d="M51.72,78.15c-.77-.42-1.27-.7-2.48-.7s-1.71.28-2.48.7c-.93.51-2.1,1.15-4.26,1.15s-3.32-.64-4.26-1.15c-.75-.41-1.25-.69-2.4-.7v2.94c2.11.02,3.26.64,4.18,1.15.77.42,1.27.7,2.48.7s1.71-.28,2.48-.7c.93-.51,2.1-1.15,4.26-1.15s3.32.64,4.25,1.15c.75.41,1.25.69,2.4.7v-2.94c-2.11-.02-3.26-.64-4.18-1.15Z"/>
          <path class="cls-9" d="M51.72,90.64c-.77-.42-1.27-.7-2.48-.7s-1.71.28-2.48.7c-.93.51-2.1,1.15-4.26,1.15s-3.32-.64-4.26-1.15c-.75-.41-1.25-.69-2.4-.7v3.1h20.05v-1.25c-2.11-.02-3.26-.64-4.18-1.15Z"/>
          <path class="cls-9" d="M49.24,83.69c-1.21,0-1.71.28-2.48.7-.93.51-2.1,1.15-4.26,1.15s-3.32-.64-4.26-1.15c-.75-.41-1.25-.69-2.4-.7v2.94c2.11.02,3.26.64,4.18,1.15.77.42,1.27.7,2.48.7s1.71-.28,2.48-.7c.93-.51,2.1-1.15,4.26-1.15s3.32.64,4.25,1.15c.75.41,1.25.69,2.4.7v-2.94c-2.11-.02-3.26-.64-4.18-1.15-.77-.42-1.27-.7-2.48-.7Z"/>
        </g>
        <path class="cls-9" d="M45.84.13c1.16,0,2.2.55,2.87,1.39.27.35.71.53,1.16.48,1.07-.13,2.19.22,3.01,1.04.82.82,1.17,1.94,1.04,3.01-.05.44.13.88.48,1.16.85.67,1.39,1.7,1.39,2.87s-.55,2.2-1.39,2.87c-.35.27-.53.71-.48,1.16.13,1.07-.22,2.19-1.04,3.01-.82.82-1.94,1.17-3.01,1.04-.44-.05-.88.13-1.16.48-.67.85-1.7,1.39-2.87,1.39s-2.2-.55-2.87-1.39c-.27-.35-.71-.53-1.16-.48-1.07.13-2.19-.22-3.01-1.04s-1.17-1.94-1.04-3.01c.05-.44-.13-.88-.48-1.16-.85-.67-1.39-1.7-1.39-2.87s.55-2.2,1.39-2.87c.35-.27.53-.71.48-1.16-.13-1.07.22-2.19,1.04-3.01.82-.82,1.94-1.17,3.01-1.04.44.05.88-.13,1.16-.48.67-.85,1.7-1.39,2.87-1.39h-10.02v20.16h20.05V.13h-10.02Z"/>
        <circle class="cls-9" cx="45.84" cy="10.08" r="2"/>
      </g>
      <rect class="cls-9" x="119.21" y="0" width="2.29" height="93.12"/>
    </g>
  </g>
</svg>