<?xml version="1.0" encoding="UTF-8"?>
<svg id="Capa_2" data-name="Capa 2" xmlns="http://www.w3.org/2000/svg" viewBox="0 0 479.16 404.49">
  <defs>
    <style>
      .cls-1 {
        fill: #9f3f8e;
      }

      .cls-2 {
        fill: #fe851c;
      }

      .cls-3 {
        fill: #fff;
      }

      .cls-4 {
        fill: #5276ba;
      }

      .cls-5 {
        fill: #00b023;
      }

      .cls-6 {
        fill: #ff4c64;
      }

      .cls-7 {
        fill: #fec152;
      }

      .cls-8 {
        fill: #0797d4;
      }

      .cls-9 {
        fill: #b28d5c;
      }

      .cls-10 {
        fill: #9d2648;
      }

      .cls-11 {
        fill: #00afa5;
      }
    </style>
  </defs>
  <g id="Layer_1" data-name="Layer 1">
    <g>
      <path class="cls-3" d="M467.13,366.96c-3.02-1.54-6.43-2.33-10.15-2.33h-8.86c18.4-1.21,31.03-14.89,31.03-34.13,0-20.5-13.69-33.24-35.73-33.24-2.06,0-5.11.12-8.07.24-2.12.08-4.31.17-5.23.17h-18.48l-4.47,20.88,7.99,2.51c.05,1.1.08,2.46.08,4.04v11.62c0,1.06-.02,2.05-.04,3-1.72-4.18-3.96-9.95-6.3-15.97-1.64-4.23-3.34-8.61-5-12.8-.88-2.18-1.51-4.5-1.95-6.29l-1.8-7.21-7.42-.35c-.47-.02-.98-.03-1.52-.03-4.51,0-11.26.83-13.85,1.52l-5.15,1.38-3.87,11.31c-1.28,3.31-2.62,6.74-3.97,10.12-3.53-15.1-16.17-24.13-34.73-24.13-2.06,0-5.11.12-8.07.24-2.12.08-4.31.17-5.23.17h-49.56l-3.85,17.98-3.85-17.98h-129.03l-.78,3.63c-5.15-3.07-11.39-4.79-18.38-4.79-8.94,0-17.02,3.12-23.24,8.34l-1.41-7.18h-36.84l-1.97,7.45c-.12.44-.26.94-.42,1.47-.2-.63-.38-1.21-.53-1.74l-2.11-7.17H6.61l-4.39,20.49,7.33,2.67c-.04,1.92-.15,4.5-.31,7.74-.21,4.21-.5,8.52-.78,12.05l-8.45,2.74,4.46,20.8h15.01v.26c-2.76.12-5.26.66-7.42,1.64-2.94,1.34-5.25,3.3-6.87,5.82-1.6,2.48-2.44,5.37-2.44,8.33,0,2.22.41,4.26,1.23,6.12l-3.85,8.64,5.76,4.85c1.83,1.54,4.12,2.75,6.78,3.58,2.36.74,4.84,1.11,7.38,1.11,1.27,0,2.46-.11,3.62-.29h0s34.69,0,34.69,0v-.36c1.68.41,3.42.64,5.22.64,1.17,0,2.3-.11,3.41-.28h78.88l.25-.58.25.58h56.12l.25-.58.25.58h33.36c2.34,0,4.56-.31,6.64-.93v.93h72.1v-.72c2.07.65,4.26,1,6.54,1,2.76,0,5.4-.49,7.85-1.45,1.98-.78,3.77-1.84,5.38-3.14l1.88,4.31h96.22l.25-.58.25.58h25.88l-.05-.11c2.83-.26,5.47-1,7.86-2.22,3.26-1.67,5.86-4.06,7.73-7.12,1.86-3.05,2.81-6.53,2.81-10.35s-.95-7.34-2.83-10.39c-1.86-3.03-4.46-5.41-7.71-7.07Z"/>
      <path class="cls-3" d="M184.12,292.33h118.8v-.26c45.52-3.49,81.49-41.64,81.49-88.04v-120.89h-.15C381.58,36.84,343.07,0,296.12,0h-25.35v.18h-61.98v-.18h-31.68v.28c-45.42,3.58-81.29,41.69-81.29,88.02v121.51h.19c2.99,46,41.36,82.51,88.11,82.51Z"/>
    </g>
    <g>
      <path class="cls-10" d="M32.7,354.15H12.54l-.87-4.07,6.1-1.98c.46-3.72,1.1-11.91,1.45-19.05.46-9.06.46-12.84-.06-14.41-.7-.93-3.43-2.21-5.34-2.9l.87-4.07h22.19c1.92,6.51,6.56,19.52,10.11,27.88,3.49-9.41,8.48-21.73,10.11-27.88h20.91l.81,4.12-6.04,2.67,1.22,21.78c.35,6.39.7,9.76,1.57,10.98.64.99,3.37,2.21,5.4,2.85l-.87,4.07h-22.66l-.87-4.07,6.39-2.03c.17-3.83-.93-19.58-1.1-30.9l-12.43,31.78c-3.08.29-6.27.29-9.35,0-2.85-6.62-8.71-22.25-13.07-31.72l-.41,14.17c-.29,10.4-.41,14.35.12,15.63.58,1.57,4.01,2.21,6.85,3.08l-.87,4.07Z"/>
      <path class="cls-10" d="M85.03,332.31c0-15.34,12.02-25.79,25.85-25.79s23.47,8.71,23.47,23c0,15.22-11.33,25.79-25.27,25.79s-24.05-8.71-24.05-23ZM118.73,345.73c1.45-2.61,2.85-7.49,2.85-13.54,0-11.56-3.49-18.53-12.26-18.53-2.9,0-5.58.75-7.44,2.09-2.44,3.49-4.07,8.83-4.07,15.16,0,10.75,4.76,17.43,12.78,17.43,3.49,0,6.39-.99,8.13-2.61Z"/>
      <path class="cls-10" d="M158.75,354.15c-.64-1.98-1.45-4.47-2.5-7.03-4.59-11.56-9.7-25.15-13.19-33.17l-5.81-2.21.87-4.07h22.89l.87,4.07-5.58,1.98c2.61,7.32,6.45,19.05,10.75,30.03,3.72-9.53,7.38-21.2,9.99-29.97l-5.87-2.03.87-4.07h19.11l.87,4.07-5.52,2.61c-3.89,8.07-8.95,20.62-13.65,32.76l-2.21,7.03c-3.95.29-8.02.29-11.91,0Z"/>
      <path class="cls-10" d="M202.19,348.05c.29-1.74.58-6.27.58-11.33v-11.62c0-3.6-.17-9.41-.99-10.51-.64-.99-3.37-2.21-5.4-2.85l.87-4.07h22.66l.87,4.07-5.81,2.03c-.29,1.74-.58,6.27-.58,11.33v11.62c0,3.6.17,9.41.99,10.51.64.99,3.37,2.21,5.4,2.85l-.87,4.07h-22.66l-.87-4.07,5.81-2.03Z"/>
      <path class="cls-10" d="M233.27,348.05c.29-1.74.58-6.27.58-11.33v-11.62c0-3.6-.17-9.41-.99-10.51-.64-.99-3.37-2.21-5.4-2.85l.87-4.07h22.66l.87,4.07-5.81,2.03c-.29,1.74-.58,6.27-.58,11.33v11.62c0,3.6.17,9.41.99,10.51.12.17.29.35.46.52,1.22.7,3.66.81,5.93.81s4.47-.17,6.04-.41l2.32-8.66c1.86-.12,5.93.06,7.55.35.17,4.59.17,9.47,0,14.29h-40.43l-.87-4.07,5.81-2.03Z"/>
      <path class="cls-10" d="M279.79,348.05c.29-1.74.58-6.27.58-11.33v-11.62c0-3.6-.17-9.41-.99-10.51-.64-.99-3.37-2.21-5.4-2.85l.87-4.07h22.66l.87,4.07-5.81,2.03c-.29,1.74-.58,6.27-.58,11.33v11.62c0,3.6.17,9.41.99,10.51.64.99,3.37,2.21,5.4,2.85l-.87,4.07h-22.66l-.87-4.07,5.81-2.03Z"/>
      <path class="cls-10" d="M310.87,348.05c.29-1.74.58-6.27.58-11.33v-11.62c0-3.6-.17-9.41-.99-10.51-.64-.99-3.37-2.21-5.4-2.85l.87-4.07h10.4c2.44,0,9.88-.41,13.3-.41,19.23,0,25.73,10.69,25.73,23.24,0,16.21-11.15,24.22-23.7,24.22-4.24,0-10.57-.58-14.87-.58h-10.86l-.87-4.07,5.81-2.03ZM324.46,347.7c1.34.99,6.62,1.92,10.8.35,5-2.73,7.84-8.83,7.84-17.54,0-7.2-2.61-12.84-5.29-14.99-2.21-1.39-5.46-2.03-8.83-2.03-1.92,0-3.89.12-5.34.35-.29,1.8-.58,6.27-.58,11.27v11.62c0,3.6.17,9.41.99,10.51.12.12.23.29.41.46Z"/>
      <path class="cls-10" d="M380.34,354.15h-20.91l-.87-4.07,5.52-2.61c3.95-8.07,8.95-20.62,13.65-32.76l2.21-6.45c1.74-.46,8.66-1.34,12.31-1.16.52,2.09,1.28,4.88,2.38,7.61,4.88,12.32,10.34,26.9,13.13,33.05l6.16,2.32-.87,4.07h-22.89l-.87-4.07,5.81-2.03c-.81-2.32-1.74-5.11-2.79-8.13l-16.5.41c-.75,2.5-1.51,4.94-2.15,7.15l7.55,2.61-.87,4.07ZM390.27,334.11c-1.92-5.46-4.07-11.44-6.33-17.14-2.03,5.17-4.12,11.1-6.04,16.85l12.37.29Z"/>
      <path class="cls-10" d="M424.66,348.05c.29-1.74.58-6.27.58-11.33v-11.62c0-3.6-.17-9.41-.99-10.51-.64-.99-3.37-2.21-5.4-2.85l.87-4.07h10.4c2.44,0,9.88-.41,13.3-.41,19.23,0,25.73,10.69,25.73,23.24,0,16.21-11.15,24.22-23.7,24.22-4.24,0-10.57-.58-14.87-.58h-10.86l-.87-4.07,5.81-2.03ZM438.25,347.7c1.34.99,6.62,1.92,10.8.35,5-2.73,7.84-8.83,7.84-17.54,0-7.2-2.61-12.84-5.29-14.99-2.21-1.39-5.46-2.03-8.83-2.03-1.92,0-3.89.12-5.34.35-.29,1.8-.58,6.27-.58,11.27v11.62c0,3.6.17,9.41.99,10.51.12.12.23.29.41.46Z"/>
    </g>
    <g>
      <path class="cls-9" d="M20.04,394.49c-1.53,0-2.99-.22-4.39-.66-1.4-.44-2.51-1-3.33-1.69l1.26-2.83c.78.62,1.75,1.13,2.91,1.54,1.16.41,2.34.62,3.55.62,1.03,0,1.86-.11,2.49-.34s1.1-.53,1.4-.91c.3-.38.45-.82.45-1.3,0-.6-.21-1.08-.64-1.44-.43-.36-.98-.65-1.67-.87s-1.44-.42-2.27-.6c-.83-.19-1.66-.41-2.49-.66-.83-.25-1.59-.58-2.27-.98-.68-.4-1.24-.94-1.66-1.61s-.64-1.53-.64-2.57.28-2.04.85-2.92c.57-.89,1.44-1.59,2.6-2.13,1.17-.53,2.64-.8,4.43-.8,1.17,0,2.34.15,3.5.45s2.16.73,3.02,1.29l-1.15,2.83c-.88-.52-1.78-.91-2.71-1.16-.93-.25-1.83-.38-2.68-.38-1.01,0-1.82.12-2.45.36-.62.24-1.08.56-1.37.95s-.43.84-.43,1.34c0,.6.21,1.08.63,1.44s.97.65,1.65.85,1.44.41,2.28.6c.84.2,1.67.42,2.5.66s1.58.56,2.27.95c.68.39,1.23.92,1.65,1.59.42.67.63,1.52.63,2.55s-.28,2.01-.85,2.9c-.57.89-1.44,1.59-2.62,2.13-1.17.53-2.66.8-4.45.8Z"/>
      <path class="cls-9" d="M37.3,391.17h11.05v3.05h-14.69v-19.58h14.29v3.05h-10.66v13.48ZM37.02,382.77h9.74v2.99h-9.74v-2.99Z"/>
      <path class="cls-9" d="M63.57,394.49c-1.49,0-2.88-.25-4.15-.74-1.28-.49-2.39-1.19-3.33-2.1-.94-.9-1.67-1.97-2.2-3.2-.52-1.23-.78-2.57-.78-4.03s.26-2.8.78-4.03c.52-1.23,1.26-2.3,2.21-3.2.95-.9,2.06-1.6,3.33-2.1,1.27-.49,2.66-.74,4.17-.74,1.6,0,3.07.28,4.39.83,1.32.55,2.44,1.37,3.36,2.45l-2.35,2.21c-.71-.76-1.5-1.34-2.38-1.72-.88-.38-1.83-.57-2.85-.57s-1.96.17-2.81.5c-.85.34-1.58.81-2.21,1.43s-1.11,1.34-1.45,2.18c-.35.84-.52,1.76-.52,2.77s.17,1.93.52,2.77c.34.84.83,1.57,1.45,2.18.62.62,1.36,1.09,2.21,1.43.85.34,1.79.5,2.81.5s1.98-.19,2.85-.57c.88-.38,1.67-.96,2.38-1.75l2.35,2.24c-.91,1.06-2.03,1.87-3.36,2.43-1.33.56-2.8.84-4.42.84Z"/>
      <path class="cls-9" d="M76.94,394.21v-19.58h8.06c1.73,0,3.22.28,4.46.84,1.24.56,2.2,1.36,2.87,2.41.67,1.04,1.01,2.28,1.01,3.72s-.34,2.67-1.01,3.71c-.67,1.04-1.63,1.83-2.87,2.38-1.24.55-2.73.83-4.46.83h-6.04l1.62-1.65v7.36h-3.64ZM80.58,387.25l-1.62-1.73h5.88c1.6,0,2.81-.35,3.62-1.04s1.22-1.65,1.22-2.88-.41-2.21-1.22-2.88-2.02-1.01-3.62-1.01h-5.88l1.62-1.79v11.33ZM89.75,394.21l-4.95-7.11h3.89l4.98,7.11h-3.92Z"/>
      <path class="cls-9" d="M103.12,391.17h11.05v3.05h-14.69v-19.58h14.29v3.05h-10.66v13.48ZM102.84,382.77h9.74v2.99h-9.74v-2.99Z"/>
      <path class="cls-9" d="M124.3,394.21v-16.5h-6.49v-3.08h16.62v3.08h-6.49v16.5h-3.64Z"/>
      <path class="cls-9" d="M135.51,394.21l8.81-19.58h3.58l8.84,19.58h-3.8l-7.58-17.65h1.45l-7.55,17.65h-3.75ZM139.57,389.68l.98-2.85h10.57l.98,2.85h-12.53Z"/>
      <path class="cls-9" d="M161.33,394.21v-19.58h8.06c1.73,0,3.22.28,4.46.84,1.24.56,2.2,1.36,2.87,2.41.67,1.04,1.01,2.28,1.01,3.72s-.34,2.67-1.01,3.71c-.67,1.04-1.63,1.83-2.87,2.38-1.24.55-2.73.83-4.46.83h-6.04l1.62-1.65v7.36h-3.64ZM164.97,387.25l-1.62-1.73h5.88c1.6,0,2.81-.35,3.62-1.04s1.22-1.65,1.22-2.88-.41-2.21-1.22-2.88-2.02-1.01-3.62-1.01h-5.88l1.62-1.79v11.33ZM174.15,394.21l-4.95-7.11h3.89l4.98,7.11h-3.92Z"/>
      <path class="cls-9" d="M183.35,373.04l3.78-3.83h4.11l-4.87,3.83h-3.02ZM183.88,394.21v-19.58h3.64v19.58h-3.64Z"/>
      <path class="cls-9" d="M192.13,394.21l8.81-19.58h3.58l8.84,19.58h-3.8l-7.58-17.65h1.45l-7.55,17.65h-3.75ZM196.19,389.68l.98-2.85h10.57l.98,2.85h-12.53Z"/>
      <path class="cls-9" d="M227.77,394.21v-19.58h8.56c2.13,0,3.99.41,5.59,1.23,1.6.82,2.85,1.96,3.75,3.41.89,1.45,1.34,3.17,1.34,5.15s-.45,3.67-1.34,5.13c-.9,1.46-2.15,2.61-3.75,3.43-1.6.82-3.47,1.23-5.59,1.23h-8.56ZM231.41,391.14h4.75c1.47,0,2.75-.28,3.82-.84,1.07-.56,1.9-1.34,2.49-2.35.59-1.01.88-2.18.88-3.52s-.29-2.54-.88-3.54c-.59-1-1.42-1.78-2.49-2.34-1.07-.56-2.34-.84-3.82-.84h-4.75v13.43Z"/>
      <path class="cls-9" d="M256.61,391.17h11.05v3.05h-14.69v-19.58h14.29v3.05h-10.66v13.48ZM256.33,382.77h9.74v2.99h-9.74v-2.99Z"/>
      <path class="cls-9" d="M283.63,394.21v-19.58h2.99l8.56,14.29h-1.57l8.42-14.29h2.99l.03,19.58h-3.44l-.03-14.18h.73l-7.16,11.94h-1.62l-7.27-11.94h.84v14.18h-3.47Z"/>
      <path class="cls-9" d="M321.62,394.49c-1.53,0-2.94-.25-4.22-.76s-2.41-1.21-3.36-2.11c-.95-.9-1.69-1.97-2.21-3.19-.52-1.22-.78-2.56-.78-4.01s.26-2.79.78-4.01c.52-1.22,1.26-2.28,2.21-3.19.95-.9,2.07-1.61,3.36-2.11,1.29-.5,2.69-.76,4.2-.76s2.93.25,4.21.76c1.28.5,2.39,1.21,3.34,2.11.95.9,1.69,1.97,2.21,3.19.52,1.22.78,2.56.78,4.01s-.26,2.8-.78,4.03c-.52,1.23-1.26,2.29-2.21,3.19-.95.9-2.07,1.59-3.34,2.1-1.28.5-2.67.76-4.18.76ZM321.59,391.31c.99,0,1.9-.17,2.74-.5.84-.34,1.57-.82,2.18-1.44.62-.62,1.1-1.35,1.44-2.18.35-.83.52-1.75.52-2.76s-.17-1.93-.52-2.76c-.34-.83-.83-1.56-1.44-2.18s-1.34-1.1-2.18-1.44c-.84-.34-1.75-.5-2.74-.5s-1.9.17-2.73.5c-.83.34-1.56.82-2.18,1.44s-1.11,1.35-1.45,2.18c-.35.83-.52,1.75-.52,2.76s.17,1.9.52,2.74c.34.84.83,1.57,1.44,2.2.62.62,1.34,1.1,2.18,1.44.84.34,1.75.5,2.74.5Z"/>
      <path class="cls-9" d="M343.27,394.21l-8.56-19.58h3.94l7.64,17.71h-2.27l7.72-17.71h3.64l-8.53,19.58h-3.58Z"/>
      <path class="cls-9" d="M359.55,394.21v-19.58h3.64v19.58h-3.64Z"/>
      <path class="cls-9" d="M370.58,394.21v-19.58h3.64v16.5h10.24v3.08h-13.88Z"/>
      <path class="cls-9" d="M389.43,394.21v-19.58h3.64v19.58h-3.64Z"/>
      <path class="cls-9" d="M400.45,394.21v-19.58h8.56c2.13,0,3.99.41,5.59,1.23,1.6.82,2.85,1.96,3.75,3.41.89,1.45,1.34,3.17,1.34,5.15s-.45,3.67-1.34,5.13c-.9,1.46-2.15,2.61-3.75,3.43-1.6.82-3.47,1.23-5.59,1.23h-8.56ZM404.09,391.14h4.75c1.47,0,2.75-.28,3.82-.84,1.07-.56,1.9-1.34,2.49-2.35.59-1.01.88-2.18.88-3.52s-.29-2.54-.88-3.54c-.59-1-1.42-1.78-2.49-2.34-1.07-.56-2.34-.84-3.82-.84h-4.75v13.43Z"/>
      <path class="cls-9" d="M422.61,394.21l8.81-19.58h3.58l8.84,19.58h-3.8l-7.58-17.65h1.45l-7.55,17.65h-3.75ZM426.66,389.68l.98-2.85h10.57l.98,2.85h-12.53Z"/>
      <path class="cls-9" d="M448.43,394.21v-19.58h8.56c2.13,0,3.99.41,5.59,1.23,1.6.82,2.85,1.96,3.75,3.41.89,1.45,1.34,3.17,1.34,5.15s-.45,3.67-1.34,5.13c-.9,1.46-2.15,2.61-3.75,3.43-1.6.82-3.47,1.23-5.59,1.23h-8.56ZM452.06,391.14h4.75c1.47,0,2.75-.28,3.82-.84,1.07-.56,1.9-1.34,2.49-2.35.59-1.01.88-2.18.88-3.52s-.29-2.54-.88-3.54c-.59-1-1.42-1.78-2.49-2.34-1.07-.56-2.34-.84-3.82-.84h-4.75v13.43Z"/>
    </g>
    <g>
      <path class="cls-6" d="M129.77,91.54c0-31.44,25.49-56.93,56.93-56.93h.41V10h-2.99c-43.24,0-78.3,35.06-78.3,78.3v16.54h23.95v-13.31Z"/>
      <path class="cls-11" d="M293.98,34.6c31.44,0,56.93,25.49,56.93,56.93v1.6h23.51v-4.84c0-43.24-35.06-78.3-78.3-78.3h-15.35v24.6h13.22Z"/>
      <path class="cls-5" d="M186.7,258.41c-31.44,0-56.93-25.49-56.93-56.93v-1.67h-23.95v4.21c0,43.24,35.06,78.3,78.3,78.3h14.66v-23.91h-12.09Z"/>
      <path class="cls-2" d="M184.15,223.11c-10.56,0-19.12-8.56-19.12-19.12h0c0-9-7.29-16.29-16.29-16.29h-42.93v12.11h32.49c2.32,0,4.21,1.88,4.21,4.21h0c0,22.98,18.63,41.6,41.6,41.6h14.66s0-7.89,0-7.89c0-8.08-6.55-14.63-14.63-14.63h0Z"/>
      <path class="cls-8" d="M187.11,10v33.71c0,1.65-1.34,2.99-2.99,2.99h0c-22.98,0-41.6,18.63-41.6,41.6v16.54h6.01c9.12,0,16.51-7.39,16.51-16.51h0c0-10.56,8.56-19.11,19.11-19.11h1.57c7.22,0,13.07-5.85,13.07-13.07V10h-11.68Z"/>
      <path class="cls-1" d="M350.91,93.14h-8.36c-2.67,0-4.84-2.17-4.84-4.84h0c0-22.98-18.63-41.6-41.6-41.6h-15.35v6.7c0,8.74,7.08,15.82,15.82,15.82h0c10.56,0,19.11,8.56,19.11,19.11h0c0,9.12,7.39,16.51,16.51,16.51h42.21v-11.71h-23.51Z"/>
      <path class="cls-4" d="M350.91,187.7v13.78c0,31.44-25.49,56.93-56.93,56.93h-1.05v23.91h3.19c43.24,0,78.3-35.06,78.3-78.3v-16.32h-23.51Z"/>
      <path class="cls-7" d="M315.7,203.99h0c0,10.56-8.56,19.12-19.12,19.12h0c-8.74,0-15.82,7.08-15.82,15.82v43.4h12.16v-33.51c0-1.76,1.43-3.19,3.19-3.19h0c22.98,0,41.6-18.63,41.6-41.6v-16.32h-5.73c-9,0-16.29,7.29-16.29,16.29Z"/>
      <g>
        <rect class="cls-10" x="339.55" y="116.55" width="11.46" height="23.63"/>
        <polygon class="cls-10" points="362.78 116.55 362.78 151.95 327.78 151.95 327.78 116.55 315.7 116.55 315.7 175.59 374.42 175.59 374.42 116.55 362.78 116.55"/>
      </g>
      <g>
        <polygon class="cls-10" points="246.02 140.18 275.1 140.18 257.57 110.67 275.38 81.15 246.02 81.15 246.02 140.18"/>
        <path class="cls-10" d="M294.12,81.15h-18.73l17.5,29.52-17.22,29.52h29.09v-48.41c0-5.87-4.76-10.63-10.63-10.63Z"/>
      </g>
      <g>
        <g>
          <rect class="cls-10" x="175.92" y="104.84" width="58.72" height="11.71"/>
          <path class="cls-10" d="M234.64,92.48v-11.33h-48.1c-5.87,0-10.63,4.76-10.63,10.63v.7h58.72Z"/>
        </g>
        <rect class="cls-10" x="175.92" y="128.92" width="58.72" height="11.27"/>
      </g>
      <g>
        <polygon class="cls-10" points="269.31 152.13 258.04 152.13 258.04 164.04 246.02 164.04 246.02 175.57 269.31 175.57 269.31 152.13"/>
        <polygon class="cls-10" points="304.74 175.57 304.74 164.04 292.54 164.04 292.54 152.13 281.27 152.13 281.27 175.57 304.74 175.57"/>
        <polygon class="cls-10" points="281.27 187.54 281.27 211.16 292.54 211.16 292.54 199.08 304.74 199.08 304.74 187.54 281.27 187.54"/>
        <polygon class="cls-10" points="246.02 187.54 246.02 199.08 258.04 199.08 258.04 211.16 269.31 211.16 269.31 187.54 246.02 187.54"/>
        <rect class="cls-10" x="269.31" y="175.57" width="11.96" height="11.96"/>
      </g>
      <g>
        <polygon class="cls-10" points="135.63 160.92 122.85 146.04 135.71 131.06 124.12 116.55 105.82 116.55 105.82 175.59 123.14 175.59 135.63 160.92"/>
        <polygon class="cls-10" points="136.17 116.55 147.93 131.28 135.26 146.04 148.02 160.9 135.51 175.59 164.54 175.59 164.54 116.55 136.17 116.55"/>
      </g>
      <g>
        <path class="cls-10" d="M175.92,192.05v8.49c0,5.87,4.76,10.63,10.63,10.63h48.1v-19.11h-58.72Z"/>
        <polygon class="cls-10" points="182.23 171.39 182.23 178.34 188.55 178.34 188.55 185.1 208.33 185.1 208.33 171.89 201.89 171.89 201.89 178.25 195.12 178.25 195.12 165.51 215.16 165.51 215.16 171.7 221.79 171.7 221.79 178.03 227.99 178.03 227.99 185.1 234.64 185.1 234.64 152.13 175.92 152.13 175.92 171.39 182.23 171.39"/>
      </g>
      <g>
        <path class="cls-10" d="M223.07,230.33c2.24,1.24,3.73,2.05,7.26,2.05s5.02-.82,7.26-2.05c2.73-1.51,6.14-3.38,12.47-3.38s9.73,1.88,12.46,3.38c2.19,1.21,3.67,2.01,7.03,2.05v-9.09h-58.72v3.67c6.18.04,9.55,1.89,12.25,3.37Z"/>
        <path class="cls-10" d="M257.3,238.69c-2.24-1.24-3.72-2.05-7.25-2.05s-5.02.82-7.26,2.05c-2.73,1.51-6.14,3.38-12.47,3.38s-9.73-1.88-12.47-3.38c-2.19-1.21-3.67-2.01-7.04-2.05v8.61c6.18.04,9.55,1.89,12.25,3.37,2.24,1.24,3.73,2.05,7.26,2.05s5.02-.82,7.26-2.05c2.73-1.51,6.14-3.38,12.47-3.38s9.73,1.88,12.46,3.38c2.19,1.21,3.67,2.01,7.03,2.05v-8.61c-6.18-.04-9.54-1.89-12.24-3.37Z"/>
        <path class="cls-10" d="M257.3,275.28c-2.24-1.24-3.72-2.05-7.25-2.05s-5.02.82-7.26,2.05c-2.73,1.51-6.14,3.38-12.47,3.38s-9.73-1.88-12.47-3.38c-2.19-1.21-3.67-2.01-7.04-2.05v9.09h58.72v-3.67c-6.18-.04-9.54-1.89-12.24-3.37Z"/>
        <path class="cls-10" d="M250.05,254.93c-3.53,0-5.02.82-7.26,2.05-2.73,1.51-6.14,3.38-12.47,3.38s-9.73-1.88-12.47-3.38c-2.19-1.21-3.67-2.01-7.04-2.05v8.61c6.18.04,9.55,1.89,12.25,3.37,2.24,1.24,3.73,2.05,7.26,2.05s5.02-.82,7.26-2.05c2.73-1.51,6.14-3.38,12.47-3.38s9.73,1.88,12.46,3.38c2.19,1.21,3.67,2.01,7.03,2.05v-8.61c-6.18-.04-9.54-1.89-12.24-3.37-2.24-1.24-3.72-2.05-7.25-2.05Z"/>
      </g>
      <path class="cls-10" d="M240.09,10.18c3.41,0,6.44,1.6,8.4,4.08.81,1.02,2.09,1.55,3.38,1.4,3.14-.37,6.42.64,8.83,3.05,2.41,2.41,3.42,5.68,3.05,8.83-.15,1.29.38,2.58,1.4,3.38,2.49,1.96,4.08,4.99,4.08,8.4s-1.6,6.44-4.08,8.4c-1.02.81-1.55,2.09-1.4,3.38.37,3.14-.64,6.42-3.05,8.83-2.41,2.41-5.68,3.42-8.83,3.05-1.29-.15-2.58.38-3.38,1.4-1.96,2.49-4.99,4.08-8.4,4.08s-6.44-1.6-8.4-4.08c-.81-1.02-2.09-1.55-3.38-1.4-3.14.37-6.42-.64-8.83-3.05-2.41-2.41-3.42-5.68-3.05-8.83.15-1.29-.38-2.58-1.4-3.38-2.49-1.96-4.08-4.99-4.08-8.4s1.6-6.44,4.08-8.4c1.02-.81,1.55-2.09,1.4-3.38-.37-3.14.64-6.42,3.05-8.83,2.41-2.41,5.68-3.42,8.83-3.05,1.29.15,2.58-.38,3.38-1.4,1.96-2.49,4.99-4.08,8.4-4.08h-29.36v59.04h58.72V10.18h-29.36Z"/>
      <circle class="cls-10" cx="240.09" cy="39.33" r="5.85"/>
    </g>
  </g>
</svg>